# xmcd
#
# Track frame offsets:
#	150
#	37960
#	51532
#	65455
#	78700
#	93455
#	106220
#	121390
#	136002
#	149845
#	164120
#	176982
#	188542
#
# Disc length: 2778
#
# Revision: 3
# Processed by: cddbd v1.5.1PL0 Copyright (c) Steve Scherf et al.
# Submitted via: audiograbber 1.83.01
# Normalized: r2:DSETVAR1
#
DISCID=c20ad80d
DTITLE=Various Artist - Women Sing The Blues
DYEAR=1998
DGENRE=Blues
TTITLE0=Bessie Smith - St Louis Blues
TTITLE1=Clara Smith - Strugglin' Woman's Blues
TTITLE2=Pearl Dickson - Little Rock Blues
TTITLE3=Sara Martin - Atlanta Blues
TTITLE4=Ruby Glaze - Lonesome Day Blues
TTITLE5=Mae Glover - I Ain't Givin' Nobody None
TTITLE6=Lottie Kimbrough - Rolling Log Blues
TTITLE7=Mattie Delaney - Down The Big Road Blues
TTITLE8=Elizabeth Johnson - Be My Kid Blues
TTITLE9=Victoria Spivey - Dirty TB Blues
TTITLE10=Memphis Minnie - I'd Rather See Him Dead
TTITLE11=Billie Holiday - Lover Man
TTITLE12=Etta James - I'd Rather Go Blind
EXTD=
EXTT0=
EXTT1=
EXTT2=
EXTT3=
EXTT4=
EXTT5=
EXTT6=
EXTT7=
EXTT8=
EXTT9=
EXTT10=
EXTT11=
EXTT12=
PLAYORDER=
